<?xml version="1.0" standalone="no"?>
<!DOCTYPE svg PUBLIC "-//W3C//DTD SVG 20010904//EN"
 "http://www.w3.org/TR/2001/REC-SVG-20010904/DTD/svg10.dtd">
<svg version="1.0" xmlns="http://www.w3.org/2000/svg"
 width="16.000000pt" height="16.000000pt" viewBox="0 0 360.000000 360.000000"
 preserveAspectRatio="xMidYMid meet">

<g transform="translate(0.000000,360.000000) scale(0.100000,-0.100000)"
fill="#ffffff" stroke="none">
<path d="M1565 3439 c-649 -82 -1173 -454 -1333 -949 -30 -90 -52 -228 -52
-319 0 -85 16 -154 50 -221 l23 -44 -34 -25 c-226 -167 -274 -446 -114 -659
24 -31 65 -73 92 -91 26 -19 50 -36 52 -38 2 -1 -11 -35 -29 -74 -58 -127 -52
-308 16 -450 38 -80 54 -102 122 -173 83 -86 196 -150 312 -176 61 -13 2199
-13 2260 0 116 26 229 90 312 176 68 71 84 93 122 173 68 142 74 323 16 450
-18 39 -31 73 -29 74 2 2 26 19 52 38 100 70 171 197 183 327 15 162 -59 315
-205 423 l-34 25 23 44 c52 102 64 234 35 391 -107 578 -651 1010 -1385 1099
-99 12 -355 11 -455 -1z m422 -243 c579 -61 1051 -399 1164 -833 26 -102 30
-246 7 -288 -23 -41 -62 -81 -101 -102 -30 -17 -107 -18 -1257 -18 l-1225 0
-42 24 c-89 51 -120 133 -104 271 14 110 33 175 82 275 173 353 601 617 1089
670 156 17 231 17 387 1z m-843 -1693 c152 -113 276 -210 276 -215 0 -5 -212
-8 -498 -6 l-498 3 -49 26 c-65 33 -106 91 -113 158 -7 76 4 114 49 165 60 68
91 74 346 75 l212 1 275 -207z m1523 193 c-3 -8 -93 -130 -198 -270 -173 -230
-198 -259 -243 -281 -60 -30 -127 -33 -176 -7 -48 24 -750 551 -750 563 0 5
277 9 686 9 594 0 685 -2 681 -14z m529 -1 c53 -16 100 -57 129 -114 13 -25
16 -51 13 -97 -5 -81 -41 -137 -113 -173 -48 -26 -54 -26 -298 -29 -210 -3
-248 -2 -245 10 1 8 71 105 153 216 l150 201 81 0 c44 1 103 -6 130 -14z
m-1361 -711 c98 -68 147 -91 231 -104 128 -21 268 21 365 108 l58 53 274 -3
274 -3 41 -27 c45 -30 86 -94 96 -148 8 -48 -11 -144 -39 -201 -31 -60 -105
-133 -165 -164 -26 -13 -76 -29 -111 -35 -87 -14 -2031 -14 -2118 0 -158 26
-281 146 -310 305 -6 33 -8 75 -5 95 13 76 75 150 142 170 15 5 288 9 607 9
l581 1 79 -56z"/>
</g>
</svg>
